<svg version="1.2" baseProfile="tiny" id="EdgeSVG_SOdV7" x="0px" y="0px" width="35.312px" height="35.312px" viewBox="0 0 35.312 35.312" xmlns:xlink="http://www.w3.org/1999/xlink" xmlns="http://www.w3.org/2000/svg">
  <linearGradient id="SVGID_2_" gradientUnits="userSpaceOnUse" x1="25.582" y1="31.1924" x2="25.582" y2="109.1621">
    <stop offset="0" style="stop-color:#231F20;stop-opacity:0.14"/>
    <stop offset="1" style="stop-color:#231F20;stop-opacity:0.44"/>
  </linearGradient>
  <path display="none" fill="url(#SVGID_2_)" d="M25.584,11.329c-28.375,0-51.375,23-51.375,51.373c0,0.221,0.029,0.434,0.034,0.654&#xD;&#xA;&#x9;&#x9;c0.353,28.07,23.187,50.719,51.341,50.719c5.359,0,10.529-0.826,15.385-2.35c0.309-0.097,0.605-0.215,0.91-0.318&#xD;&#xA;&#x9;&#x9;c2.861-0.96,5.596-2.186,8.205-3.621c0.617-0.336,1.232-0.674,1.836-1.034c14.803-8.871,24.782-24.94,25.014-43.396&#xD;&#xA;&#x9;&#x9;c0.001-0.221,0.021-0.434,0.021-0.654C76.955,34.329,53.955,11.329,25.584,11.329z"/>
  <radialGradient id="SVGID_3_" cx="17.6553" cy="17.6563" r="8.5381" gradientUnits="userSpaceOnUse">
    <stop offset="0" style="stop-color:#000000;stop-opacity:0.3"/>
    <stop offset="0.8587" style="stop-color:#000000;stop-opacity:0.3"/>
    <stop offset="1" style="stop-color:#000000;stop-opacity:0.3"/>
  </radialGradient>
  <circle fill="url(#SVGID_3_)" cx="17.655" cy="17.655" r="8.538"/>
  <radialGradient id="SVGID_4_" cx="17.6553" cy="17.6563" r="10.6304" gradientUnits="userSpaceOnUse">
    <stop offset="0" style="stop-color:#000000;stop-opacity:0.3"/>
    <stop offset="0.8587" style="stop-color:#000000;stop-opacity:0.3"/>
    <stop offset="1" style="stop-color:#000000;stop-opacity:0.3"/>
  </radialGradient>
  <circle fill="url(#SVGID_4_)" cx="17.655" cy="17.655" r="10.631"/>
</svg>